<?xml version="1.0" encoding="utf-8"?>
<!-- Generator: Adobe Illustrator 22.0.1, SVG Export Plug-In . SVG Version: 6.00 Build 0)  -->
<svg version="1.1" id="Layer_1" xmlns="http://www.w3.org/2000/svg" xmlns:xlink="http://www.w3.org/1999/xlink" x="0px" y="0px"
	 viewBox="0 0 2834.6 2834.6" style="enable-background:new 0 0 2834.6 2834.6;" xml:space="preserve">
<style type="text/css">
	.st0{fill:#606161;}
</style>
<path class="st0" d="M2500,2166.8l-275.6-375.1V1059c0-374-287.8-684.5-661.5-737.5V156c0-60.4-50.9-109.3-113.6-109.3
	S1335.6,95.6,1335.6,156v165.5C961.8,374.5,674,685,674,1059v732.8l-275.6,375.1c-53.2,72.3,0.9,172.4,92.8,172.4h1916
	C2499.3,2339.2,2553,2239,2500,2166.8z M710.7,2120.6l169.8-231.1c13.6-18.4,20.8-40.5,20.8-63.1V1059c0-290.6,245.8-527,547.9-527
	c302.1,0,547.9,236.4,547.9,527v767.5c0,22.6,7.3,44.6,20.8,63.1l169.8,231.1L710.7,2120.6L710.7,2120.6z"/>
<path class="st0" d="M1449.2,2123.3c-176.7,0-320.5,138.3-320.5,308.3s143.8,308.3,320.5,308.3c176.7,0,320.5-138.3,320.5-308.3
	C1769.7,2261.7,1625.9,2123.3,1449.2,2123.3z M1449.2,2521.4c-51.4,0-93.3-40.3-93.3-89.7s41.9-89.7,93.3-89.7s93.3,40.2,93.3,89.7
	C1542.5,2481.1,1500.6,2521.4,1449.2,2521.4z"/>
<g>
</g>
<g>
</g>
<g>
</g>
<g>
</g>
<g>
</g>
<g>
</g>
<g>
</g>
<g>
</g>
<g>
</g>
<g>
</g>
<g>
</g>
<g>
</g>
<g>
</g>
<g>
</g>
<g>
</g>
</svg>
