<?xml version="1.0" encoding="utf-8"?>
<!-- Generator: Adobe Illustrator 22.0.1, SVG Export Plug-In . SVG Version: 6.00 Build 0)  -->
<svg version="1.1" id="Layer_1" xmlns="http://www.w3.org/2000/svg" xmlns:xlink="http://www.w3.org/1999/xlink" x="0px" y="0px"
	 viewBox="0 0 2834.6 2834.6" style="enable-background:new 0 0 2834.6 2834.6;" xml:space="preserve">
<style type="text/css">
	.st0{fill:#6D6E71;stroke:#6D6E71;stroke-width:100;stroke-miterlimit:10;}
</style>
<g>
	<g>
		<g>
			<path class="st0" d="M2372.9,1799.7c-147.6-143.8-323.2-250.2-514.8-314.6c205.2-137.7,340.1-368.2,340.1-628.9
				c0-420.8-351.4-763.2-783.2-763.2S631.7,435.4,631.7,856.2c0,260.7,134.8,491.2,340.1,628.9c-191.6,64.4-367.3,170.9-514.8,314.6
				C201,2049.1,60.1,2380.6,60.1,2733.2h211.7c0-614.2,512.8-1113.8,1143.1-1113.8S2558,2119,2558,2733.2h211.7
				C2769.7,2380.6,2628.7,2049.1,2372.9,1799.7z M1414.9,1413.1c-315.2,0-571.5-249.8-571.5-556.9s256.4-556.9,571.5-556.9
				s571.5,249.8,571.5,556.9S1730,1413.1,1414.9,1413.1z"/>
		</g>
	</g>
</g>
</svg>
