<?xml version="1.0" encoding="utf-8"?>
<!-- Generator: Adobe Illustrator 22.0.1, SVG Export Plug-In . SVG Version: 6.00 Build 0)  -->
<svg version="1.1" id="Layer_1" xmlns="http://www.w3.org/2000/svg" xmlns:xlink="http://www.w3.org/1999/xlink" x="0px" y="0px"
	 viewBox="0 0 2834.6 2045.6" style="enable-background:new 0 0 2834.6 2045.6;" xml:space="preserve">
<style type="text/css">
	.st0{fill:#6D6E71;stroke:#6D6E71;stroke-width:100;stroke-miterlimit:10;}
	.st1{fill:#606161;}
	.st2{font-family:'MyriadPro-Regular';}
	.st3{font-size:1296px;}
</style>
<path class="st0" d="M2732.3,446.3c24.9,0,45.1-28.7,45.1-64.2V125.3c0-35.5-20.2-64.2-45.1-64.2h-2617c-24.9,0-45.1,28.7-45.1,64.2
	v256.8c0,35.5,20.2,64.2,45.1,64.2c49.8,0,90.2,57.5,90.2,128.4s-40.4,128.4-90.2,128.4c-24.9,0-45.1,28.7-45.1,64.2V1281
	c0,35.5,20.2,64.2,45.1,64.2c49.8,0,90.2,57.5,90.2,128.4c0,70.9-40.4,128.4-90.2,128.4c-24.9,0-45.1,28.7-45.1,64.2V1923
	c0,35.5,20.2,64.2,45.1,64.2h2617c24.9,0,45.1-28.7,45.1-64.2v-256.8c0-35.5-20.2-64.2-45.1-64.2c-49.8,0-90.2-57.5-90.2-128.4
	c0-70.9,40.4-128.4,90.2-128.4c24.9,0,45.1-28.7,45.1-64.2V767.3c0-35.5-20.2-64.2-45.1-64.2c-49.8,0-90.2-57.5-90.2-128.4
	S2682.4,446.3,2732.3,446.3z M2687.1,823.4v401.4c-79.8,29.2-135.5,131.5-135.5,248.7s55.8,219.5,135.5,248.7v136.5H701.8v-192.6
	h-90.2v192.6H160.4v-136.5c79.8-29.2,135.5-131.5,135.5-248.7s-55.8-219.5-135.5-248.7V823.4c79.8-29.2,135.5-131.5,135.5-248.7
	S240.1,355.1,160.4,326V189.5h451.2v192.6h90.2V189.5h1985.3V326c-79.8,29.2-135.5,131.5-135.5,248.7S2607.4,794.2,2687.1,823.4z"/>
<g>
	<path class="st1" d="M580.9,537.3h93.2v126.8h-93.2V537.3z"/>
	<path class="st1" d="M580.9,790.9h93.2v126.8h-93.2V790.9z"/>
	<path class="st1" d="M580.9,1044.5h93.2v126.8h-93.2V1044.5z"/>
	<path class="st1" d="M580.9,1361.6h93.2v126.8h-93.2V1361.6z"/>
</g>
<text transform="matrix(1 0 0 1 1140.2175 1383.178)" class="st0 st2 st3">Q</text>
</svg>
