<?xml version="1.0" encoding="utf-8"?>
<!-- Generator: Adobe Illustrator 22.0.1, SVG Export Plug-In . SVG Version: 6.00 Build 0)  -->
<svg version="1.1" id="Layer_1" xmlns="http://www.w3.org/2000/svg" xmlns:xlink="http://www.w3.org/1999/xlink" x="0px" y="0px"
	 viewBox="0 0 2834.6 2834.6" style="enable-background:new 0 0 2834.6 2834.6;" xml:space="preserve">
<style type="text/css">
	.st0{fill:#6D6E71;stroke:#6D6E71;stroke-width:100;stroke-miterlimit:10;}
</style>
<g>
	<g>
		<g>
			<path class="st0" d="M1987,1537.5h-366.3c-100.2,0-181.8,93.6-181.8,208.7v322.5c0,115.1,81.5,208.7,181.8,208.7H1987
				c100.2,0,181.8-93.6,181.8-208.7v-322.5C2168.8,1631.1,2087.2,1537.5,1987,1537.5z M2036.6,2068.7c0,31.6-22.6,56.9-49.6,56.9
				h-366.3c-27.5,0-49.6-25.9-49.6-56.9v-322.5c0-31.6,22.6-56.9,49.6-56.9H1987c27.5,0,49.6,25.9,49.6,56.9V2068.7z"/>
			<path class="st0" d="M2767.5,951.4c0-13.3-2.8-25.9-8.8-37.3l-401-809.4c-11.6-23.4-33.6-38.6-57.3-38.6h-1762
				c-23.7,0-45.7,14.5-57.3,38.6L80.7,914c-5.5,11.4-8.8,24-8.8,37.3c0,181.5,95.3,337,231.3,406v1334.9c0,41.7,29.7,75.9,66.1,75.9
				h365.2c0.6,0,1.1,0,1.7,0h512.2c0.6,0,1.1,0,1.7,0h1219.5c36.4,0,66.1-34.1,66.1-75.9V1366.8c0-3.2,0-5.7-0.6-8.2
				C2671.6,1289.7,2767.5,1133.5,2767.5,951.4z M577,218.4h1684.9l313.4,633H264.1L577,218.4z M1990.3,1002.6
				c-20.9,136.6-125,240.3-250.1,240.3c-125,0-229.1-103.7-250.1-240.3H1990.3z M1349.7,1002.6c-20.9,136.6-125,240.3-250.1,240.3
				S870.5,1139.2,849,1002.6H1349.7z M208.5,1002.6h500.7c-20.9,136.6-125.6,240.3-250.6,240.3
				C333.5,1243.5,229.4,1139.2,208.5,1002.6z M1182.3,2616.4H802.2v-818.9c0-59.4,41.9-108.1,94.2-108.1h192.2
				c51.8,0,94.2,48.1,94.2,108.1v818.9H1182.3z M2403.4,2616.4H1314.5v-818.9c0-142.9-101.3-259.9-226.4-259.9H895.9
				c-124.5,0-226.4,116.4-226.4,259.9V2617H435.4V1394.6c7.7,0.6,15.4,0.6,23.1,0.6c133.3,0,251.2-77.8,320.6-196
				c69.4,118.3,187.3,196,320.6,196s250.6-77.8,320.6-196c69.4,118.3,187.3,196,320,196c133.3,0,250.6-77.8,320-196
				c69.4,118.3,187.3,196,320.6,196c7.7,0,14.9-0.6,22.6-0.6L2403.4,2616.4L2403.4,2616.4z M2380.8,1243.5
				c-125,0-229.1-103.7-250.1-240.3h500.7C2610,1139.2,2505.9,1243.5,2380.8,1243.5z"/>
		</g>
	</g>
</g>
</svg>
