<?xml version="1.0" encoding="utf-8"?>
<!-- Generator: Adobe Illustrator 22.0.1, SVG Export Plug-In . SVG Version: 6.00 Build 0)  -->
<svg version="1.1" id="Layer_1" xmlns="http://www.w3.org/2000/svg" xmlns:xlink="http://www.w3.org/1999/xlink" x="0px" y="0px"
	 viewBox="0 0 2834.6 2834.6" style="enable-background:new 0 0 2834.6 2834.6;" xml:space="preserve">
<style type="text/css">
	.st0{fill:none;stroke:#58595B;stroke-width:90;stroke-miterlimit:10;}
	.st1{fill:#606161;}
	.st2{font-family:'FreesiaUPC';}
	.st3{font-size:900px;}
	.st4{fill:none;}
	.st5{fill:#FFFFFF;}
</style>
<circle class="st0" cx="1425.5" cy="1427.5" r="1320"/>
<circle class="st0" cx="1435.5" cy="1442.5" r="942.5"/>
<text transform="matrix(0.9956 -9.368888e-02 9.368888e-02 0.9956 699.4308 1732.4258)" class="st1 st2 st3">ใช้แล้ว</text>
<path id="SVGID_x5F_1_x5F_" class="st4" d="M2509.5,1442.5c0,603.4-480.9,1092.5-1074,1092.5s-1074-489.1-1074-1092.5
	S842.3,350,1435.5,350S2509.5,839.1,2509.5,1442.5z"/>
<text><textPath  xlink:href="#SVGID_x5F_1_x5F_" startOffset="94.6289%">
<tspan  style="font-family:'EDMuzazhi'; font-size:181.0978px;">MOO ka ta         moo ka ta       moo ka ta       moo ka ta      moo ta ka          moo ka ta     m</tspan></textPath>
</text>
<rect x="1157" y="270" class="st4" width="577.5" height="30"/>
<circle class="st1" cx="2542" cy="1580" r="32.5"/>
<circle class="st1" cx="2117" cy="532.5" r="32.5"/>
<circle class="st1" cx="1934.5" cy="2438" r="32.5"/>
<circle class="st1" cx="912" cy="2438" r="32.5"/>
<circle class="st1" cx="342" cy="1493" r="32.5"/>
<circle class="st1" cx="929.5" cy="467.5" r="32.5"/>
<rect x="97.1" y="780.7" transform="matrix(0.989 -0.1482 0.1482 0.989 -106.2043 213.2203)" class="st5" width="2560.9" height="77"/>
<rect x="219.3" y="1889.3" transform="matrix(0.989 -0.1482 0.1482 0.989 -269.1731 243.5785)" class="st5" width="2560.9" height="77"/>
</svg>
